<?xml version="1.0" encoding="utf-8"?>
<!-- Generator: Adobe Illustrator 16.0.0, SVG Export Plug-In . SVG Version: 6.00 Build 0)  -->
<!DOCTYPE svg PUBLIC "-//W3C//DTD SVG 1.1//EN" "http://www.w3.org/Graphics/SVG/1.1/DTD/svg11.dtd">
<svg version="1.1" id="Layer_1" xmlns="http://www.w3.org/2000/svg" xmlns:xlink="http://www.w3.org/1999/xlink" x="0px" y="0px"
	 width="512px" height="512px" viewBox="0 0 512 512" enable-background="new 0 0 512 512" xml:space="preserve">
<g id="snail">
	<g>
		<path fill="#EAAD7A" d="M458.511,311.283c-0.969,0-1.969-0.156-2.953-0.438c-5.656-1.625-8.938-7.531-7.312-13.188l42.826-149.314
			c1.609-5.671,7.53-8.937,13.187-7.312c5.656,1.609,8.938,7.515,7.312,13.187L468.76,303.533
			C467.416,308.221,463.15,311.283,458.511,311.283z"/>
	</g>
	<g>
		<path fill="#EAAD7A" d="M437.309,311.283c-5.172,0-9.719-3.781-10.531-9.062L405.45,163.562
			c-0.906-5.812,3.094-11.266,8.922-12.156c5.812-0.906,11.265,3.094,12.155,8.922l21.343,138.643
			c0.891,5.844-3.109,11.281-8.921,12.188C438.402,311.221,437.84,311.283,437.309,311.283z"/>
	</g>
	<path fill="#FFD2A6" d="M458.495,289.939H351.999c-1.156,0-2.297,0.188-3.391,0.531l-127.697,42.654
		c-5.594,1.875-8.609,7.906-6.75,13.499c1.453,4.344,5.422,7.125,9.733,7.281l-120.088,16.969
		c-4.016-4.312-10.765-4.562-15.078-0.531l-42.67,39.779c-3.203,3-4.25,7.656-2.641,11.719s5.531,6.75,9.921,6.75h277.316
		c21.656,0,42.015-4.5,60.529-13.375c16.328-7.844,30.906-18.905,43.312-32.874c21.39-24.062,34.67-55.404,34.67-81.746
		C469.166,294.721,464.4,289.939,458.495,289.939z"/>
	<path opacity="0.1" d="M458.495,289.939c0,26.344-13.281,57.653-34.654,81.747c-12.422,13.968-26.984,25.03-43.327,32.873
		c-18.499,8.875-38.874,13.375-60.513,13.375H42.668l0,0c0,1.312,0.25,2.625,0.75,3.906c1.609,4.062,5.531,6.75,9.921,6.75h277.316
		c21.656,0,42.015-4.5,60.529-13.375c16.328-7.844,30.906-18.905,43.312-32.874c21.39-24.062,34.67-55.404,34.67-81.746
		C469.166,294.721,464.4,289.939,458.495,289.939z"/>
	<polygon fill="#965353" points="338.624,231.278 304.627,158.359 271.955,128.017 217.958,96.549 175.288,96.018 121.962,101.033 
		61.292,134.97 21.965,193.39 13.966,279.69 31.965,331.031 92.635,378.342 147.289,383.279 200.63,367.687 218.63,345.03 
		243.957,337.688 299.955,319.033 338.624,304.346 349.28,276.347 	"/>
	<g>
		<path fill="#7F4545" d="M140.383,396.592c-77.403,0-140.369-62.967-140.369-140.377c0-46.154,17.968-89.559,50.607-122.198
			s76.044-50.607,122.198-50.607c28.749,0,55.716,5.905,80.153,17.562c23.218,11.094,43.64,27.093,60.701,47.561
			c32.982,39.624,51.17,93.637,51.17,152.064c0,5.906-4.781,10.688-10.672,10.688s-10.672-4.781-10.672-10.688
			c0-53.459-16.421-102.613-46.231-138.408c-31.296-37.577-74.325-57.451-124.449-57.451c-40.467,0-78.497,15.765-107.105,44.373
			c-28.624,28.608-44.373,66.654-44.373,107.105c0,65.66,53.404,119.064,119.042,119.064c24.874,0,48.248-9.687,65.841-27.28
			c17.592-17.593,27.264-40.966,27.264-65.84c0-39.897-32.452-72.349-72.341-72.349c-30.749,0-55.748,25.014-55.748,55.747
			c0,23.413,19.046,42.476,42.467,42.476c17.546,0,31.827-14.281,31.827-31.843c0-5.898,4.781-10.68,10.671-10.68
			c5.89,0,10.671,4.781,10.671,10.68c0,29.312-23.858,53.153-53.169,53.153c-35.187,0-63.811-28.623-63.811-63.786
			c0-42.498,34.577-77.074,77.091-77.074c51.654,0,93.684,42.014,93.684,93.676c0,30.562-11.906,59.309-33.529,80.934
			C199.693,384.686,170.959,396.592,140.383,396.592z"/>
	</g>
	<g>
		<path fill="#7F4545" d="M224.285,353.905c-4.483,0-8.655-2.844-10.14-7.344c-1.828-5.593,1.219-11.624,6.812-13.437
			l129.885-42.654c5.594-1.844,11.625,1.219,13.469,6.812c1.828,5.594-1.219,11.625-6.812,13.469l-129.886,42.622
			C226.504,353.749,225.379,353.905,224.285,353.905z"/>
	</g>
</g>
</svg>
